Coordinates
version=1
nRows=17
nColumns=24
inDegrees=yes

Units are S.I. units (second, meters, Newtons, ...)
Angles are in degrees.

endheader
time	pelvis_tilt	pelvis_list	pelvis_rotation	pelvis_tx	pelvis_ty	pelvis_tz	hip_flexion_r	hip_adduction_r	hip_rotation_r	knee_angle_r	ankle_angle_r	subtalar_angle_r	mtp_angle_r	hip_flexion_l	hip_adduction_l	hip_rotation_l	knee_angle_l	ankle_angle_l	subtalar_angle_l	mtp_angle_l	lumbar_extension	lumbar_bending	lumbar_rotation
      4.02000000	     -9.27102825	    -10.33753476	      5.17588775	     -2.65960977	     -0.02498165	      0.44647717	     22.73667111	     10.73216764	     -7.87480723	    -16.42543173	     -5.08630266	     -3.60380066	      5.37117047	     16.65161145	    -11.94107227	      6.68533702	    -60.81266738	    -28.13897376	     -3.94452123	     26.64442909	      7.60400549	      9.41960451	     -3.53547080
      4.02500000	     -9.10685255	    -10.24710229	      5.17578352	     -2.65360914	     -0.02411106	      0.44734701	     22.00468459	     10.82021847	     -7.66329473	    -16.19859616	     -4.80996096	     -3.67158813	      5.49153005	     17.37809321	    -11.66178492	      6.93457422	    -61.74663613	    -27.71251035	     -5.09073566	     26.33280968	      7.39816077	      9.28087626	     -3.32500390
      4.03000000	     -8.93241318	    -10.10135501	      5.17813344	     -2.64765206	     -0.02315909	      0.44822541	     21.24448675	     10.85729618	     -7.40127755	    -15.95963161	     -4.53395922	     -3.76304966	      5.47299788	     18.07337909	    -11.32518904	      7.15009260	    -62.57194008	    -27.26516784	     -6.09574365	     26.01822974	      7.17570235	      9.08116384	     -3.11007025
      4.03500000	     -8.82166251	     -9.94214877	      5.15727298	     -2.64168670	     -0.02221788	      0.44911722	     20.52763696	     10.87365088	     -7.12138698	    -15.68145864	     -4.27226050	     -3.77376482	      5.45763206	     18.80552665	    -10.97176876	      7.36702841	    -63.27682588	    -26.65932671	     -6.78088693	     25.99730151	      7.02887268	      8.85994800	     -2.89245766
      4.04000000	     -8.69898174	     -9.71511968	      5.14436374	     -2.63579601	     -0.02119340	      0.44997131	     19.78727051	     10.81502659	     -6.84659071	    -15.39153383	     -4.02859096	     -3.81539778	      5.39797524	     19.50463723	    -10.54088035	      7.53747075	    -63.87476799	    -26.09841461	     -7.43728453	     25.89829115	      6.85817524	      8.57173072	     -2.65865585
      4.04500000	     -8.53454563	     -9.41523340	      5.07365790	     -2.62996171	     -0.02006238	      0.45087929	     19.00105558	     10.70058280	     -6.57959221	    -15.11621752	     -3.79570538	     -3.86103292	      5.28301463	     20.10740969	    -10.06546095	      7.58072517	    -64.35636475	    -25.49754237	     -8.00698393	     25.70673812	      6.61871860	      8.22322787	     -2.31025211
      4.05000000	     -8.42841588	     -9.13239768	      4.99684906	     -2.62411912	     -0.01896863	      0.45175644	     18.24408449	     10.58842572	     -6.26359247	    -14.77635243	     -3.57495883	     -3.81833226	      5.19163192	     20.75788074	     -9.60280916	      7.64003038	    -64.74090583	    -24.76133253	     -8.30221930	     25.68724007	      6.45714837	      7.88927908	     -1.98988389
      4.05500000	     -8.40408008	     -8.82650803	      4.97195089	     -2.61832603	     -0.01795079	      0.45256472	     17.56930615	     10.41877135	     -5.99358665	    -14.41268760	     -3.36472405	     -3.80425456	      5.15412924	     21.49956112	     -9.08454270	      7.73525057	    -65.02717100	    -24.06790418	     -8.57923491	     25.78397306	      6.39275717	      7.51683171	     -1.79794540
      4.06000000	     -8.32775944	     -8.42990807	      4.79220042	     -2.61257335	     -0.01683243	      0.45356885	     16.84610229	     10.20436422	     -5.61937796	    -14.09696227	     -3.13401794	     -3.76126561	      5.05411553	     22.09071078	     -8.55125603	      7.64404345	    -65.18952811	    -23.08844985	     -8.44669240	     25.87973625	      6.23288595	      7.07274225	     -1.36403067
      4.06500000	     -8.33169279	     -8.01593017	      4.67518751	     -2.60686496	     -0.01576701	      0.45445229	     16.20887069	      9.92967557	     -5.33293403	    -13.75796339	     -2.95543702	     -3.73017626	      4.99624324	     22.76939820	     -7.95561422	      7.60653394	    -65.24987403	    -22.22444093	     -8.39445128	     25.98702586	      6.17132095	      6.59858337	     -1.02527282
      4.07000000	     -8.34412403	     -7.60524837	      4.50189718	     -2.60113843	     -0.01474858	      0.45540538	     15.56694980	      9.66933555	     -4.95752792	    -13.39868842	     -2.74281311	     -3.66603587	      4.94676906	     23.42615713	     -7.40575537	      7.49187238	    -65.22544616	    -21.26611410	     -8.17674773	     26.08711525	      6.12131204	      6.13676770	     -0.65500885
      4.07500000	     -8.38471647	     -7.16522266	      4.32200291	     -2.59546201	     -0.01375669	      0.45633840	     14.97039868	      9.36683554	     -4.61079590	    -13.05667701	     -2.55905240	     -3.61667501	      4.90761273	     24.08635819	     -6.82456230	      7.35465534	    -65.09968680	    -20.33072420	     -7.96421751	     26.15174590	      6.09684582	      5.64698658	     -0.28710437
      4.08000000	     -8.43929880	     -6.71873775	      4.11897880	     -2.58981396	     -0.01281049	      0.45725761	     14.39786069	      9.05183788	     -4.25264044	    -12.72181788	     -2.38598156	     -3.56620029	      4.88258412	     24.73609673	     -6.25119217	      7.17999441	    -64.88330824	    -19.40903807	     -7.75317082	     26.18300925	      6.08766355	      5.15913669	      0.09115809
      4.08500000	     -8.50511074	     -6.27353355	      3.89387387	     -2.58415813	     -0.01191540	      0.45817900	     13.84024384	      8.73526126	     -3.88564022	    -12.38453563	     -2.22098701	     -3.51914717	      4.87062912	     25.37146637	     -5.69689067	      6.97078020	    -64.57657372	    -18.52927793	     -7.56999929	     26.17608381	      6.09353934	      4.67925283	      0.48153979
      4.09000000	     -8.57642401	     -5.83386316	      3.65003731	     -2.57851885	     -0.01107669	      0.45908402	     13.29835528	      8.41940823	     -3.52250818	    -12.05241813	     -2.07117350	     -3.47816828	      4.86943806	     25.99004751	     -5.16296747	      6.73552677	    -64.18291568	    -17.70784766	     -7.44883609	     26.13951178	      6.10941301	      4.21348835	      0.88191038
      4.09500000	     -8.64940990	     -5.40739567	      3.40318820	     -2.57290808	     -0.01031080	      0.45995266	     12.77477903	      8.10973562	     -3.17981153	    -11.73594228	     -1.93170538	     -3.45960870	      4.87027345	     26.59318057	     -4.65028699	      6.49192814	    -63.70744677	    -16.94742436	     -7.41680709	     26.07800381	      6.12820437	      3.76829036	      1.26822433
      4.10000000	     -8.71644790	     -5.00877042	      3.12886343	     -2.56726560	     -0.00961571	      0.46081524	     12.23696511	      7.82914281	     -2.80030842	    -11.39770166	     -1.79923688	     -3.43978644	      4.87163846	     27.16872912	     -4.19201584	      6.21927760	    -63.15868569	    -16.24908315	     -7.43924342	     25.97084157	      6.15253443	      3.36359327	      1.67466822
